<svg width="69" height="66" viewBox="0 0 69 66" fill="none" xmlns="http://www.w3.org/2000/svg">
<g filter="url(#filter0_d_164_508)">
<path d="M15 0C13.8954 0 13 0.895431 13 2V6C13 7.10457 12.1046 8 11 8H7C5.89543 8 5 8.89543 5 10V11.3333C5 12.4379 5.89543 13.3333 7 13.3333H11C12.1046 13.3333 13 14.2288 13 15.3333V19.3333C13 20.4379 13.8954 21.3333 15 21.3333H16.3333C17.4379 21.3333 18.3333 20.4379 18.3333 19.3333V15.3333C18.3333 14.2288 19.2288 13.3333 20.3333 13.3333H24.3333C25.4379 13.3333 26.3333 12.4379 26.3333 11.3333V10C26.3333 8.89543 25.4379 8 24.3333 8H20.3333C19.2288 8 18.3333 7.10457 18.3333 6V2C18.3333 0.895431 17.4379 0 16.3333 0H15ZM33.6667 8C32.5621 8 31.6667 8.89543 31.6667 10V11.3333C31.6667 12.4379 32.5621 13.3333 33.6667 13.3333H53.6667C54.7712 13.3333 55.6667 14.2288 55.6667 15.3333V16.6667C55.6667 17.7712 54.7712 18.6667 53.6667 18.6667H39.6667C36.7333 18.6667 34.3333 21.0667 34.3333 24V40C34.3333 42.9333 36.7333 45.3333 39.6667 45.3333H53.6667C54.7712 45.3333 55.6667 46.2288 55.6667 47.3333V48.6667C55.6667 49.7712 54.7712 50.6667 53.6667 50.6667H20.3333C19.2288 50.6667 18.3333 49.7712 18.3333 48.6667V28.6667C18.3333 27.5621 17.4379 26.6667 16.3333 26.6667H15C13.8954 26.6667 13 27.5621 13 28.6667V50.6667C13 52.0812 13.5619 53.4377 14.5621 54.4379C15.5623 55.4381 16.9188 56 18.3333 56H55.6667C58.6 56 61 53.6 61 50.6667V45.7414C61 45.0268 61.4024 44.3878 61.93 43.906C62.3283 43.5422 62.6708 43.1186 62.9441 42.6485C63.412 41.8438 63.661 40.9307 63.6667 40V24C63.661 23.0693 63.412 22.1562 62.9441 21.3516C62.6708 20.8814 62.3283 20.4578 61.93 20.094C61.4024 19.6122 61 18.9732 61 18.2586V13.3333C61 10.4 58.6 8 55.6667 8H33.6667ZM39.6667 26C39.6667 24.8954 40.5621 24 41.6667 24H56.3333C57.4379 24 58.3333 24.8954 58.3333 26V38C58.3333 39.1046 57.4379 40 56.3333 40H41.6667C40.5621 40 39.6667 39.1046 39.6667 38V26ZM47.6667 28C46.6058 28 45.5884 28.4214 44.8382 29.1716C44.0881 29.9217 43.6667 30.9391 43.6667 32C43.6667 33.0609 44.0881 34.0783 44.8382 34.8284C45.5884 35.5786 46.6058 36 47.6667 36C48.7275 36 49.7449 35.5786 50.4951 34.8284C51.2452 34.0783 51.6667 33.0609 51.6667 32C51.6667 30.9391 51.2452 29.9217 50.4951 29.1716C49.7449 28.4214 48.7275 28 47.6667 28Z" fill="#9560DB"/>
</g>
<defs>
<filter id="filter0_d_164_508" x="0" y="0" width="74" height="74" filterUnits="userSpaceOnUse" color-interpolation-filters="sRGB">
<feFlood flood-opacity="0" result="BackgroundImageFix"/>
<feColorMatrix in="SourceAlpha" type="matrix" values="0 0 0 0 0 0 0 0 0 0 0 0 0 0 0 0 0 0 127 0" result="hardAlpha"/>
<feOffset dy="5"/>
<feGaussianBlur stdDeviation="2.5"/>
<feComposite in2="hardAlpha" operator="out"/>
<feColorMatrix type="matrix" values="0 0 0 0 0 0 0 0 0 0 0 0 0 0 0 0 0 0 0.25 0"/>
<feBlend mode="normal" in2="BackgroundImageFix" result="effect1_dropShadow_164_508"/>
<feBlend mode="normal" in="SourceGraphic" in2="effect1_dropShadow_164_508" result="shape"/>
</filter>
</defs>
</svg>
