<svg width="24" height="24" viewBox="0 0 24 24" fill="none" xmlns="http://www.w3.org/2000/svg">
<path d="M10 21C9.71667 21 9.479 20.904 9.287 20.712C9.095 20.52 8.99934 20.2827 9 20V19H7C6.71667 19 6.479 18.904 6.287 18.712C6.095 18.52 5.99934 18.2827 6 18C6 17.7167 6.096 17.479 6.288 17.287C6.48 17.095 6.71734 16.9993 7 17H8V7H7C6.71667 7 6.479 6.904 6.287 6.712C6.095 6.52 5.99934 6.28267 6 6C6 5.71667 6.096 5.479 6.288 5.287C6.48 5.095 6.71734 4.99934 7 5H9V4C9 3.71667 9.096 3.479 9.288 3.287C9.48 3.095 9.71734 2.99934 10 3C10.2833 3 10.521 3.096 10.713 3.288C10.905 3.48 11.0007 3.71734 11 4V5H13V4C13 3.71667 13.096 3.479 13.288 3.287C13.48 3.095 13.7173 2.99934 14 3C14.2833 3 14.521 3.096 14.713 3.288C14.905 3.48 15.0007 3.71734 15 4V5.125C15.8667 5.35834 16.5833 5.82934 17.15 6.538C17.7167 7.24667 18 8.06734 18 9C18 9.48334 17.9167 9.946 17.75 10.388C17.5833 10.83 17.35 11.2257 17.05 11.575C17.6333 11.925 18.1043 12.4 18.463 13C18.8217 13.6 19.0007 14.2667 19 15C19 16.1 18.6083 17.0417 17.825 17.825C17.0417 18.6083 16.1 19 15 19V20C15 20.2833 14.9043 20.521 14.713 20.713C14.5217 20.905 14.284 21.0007 14 21C13.7167 21 13.479 20.904 13.287 20.712C13.095 20.52 12.9993 20.2827 13 20V19H11V20C11 20.2833 10.904 20.521 10.712 20.713C10.52 20.905 10.2827 21.0007 10 21ZM10 11H14C14.55 11 15.021 10.804 15.413 10.412C15.805 10.02 16.0007 9.54934 16 9C16 8.45 15.804 7.979 15.412 7.587C15.02 7.195 14.5493 6.99934 14 7H10V11ZM10 17H15C15.55 17 16.021 16.804 16.413 16.412C16.805 16.02 17.0007 15.5493 17 15C17 14.45 16.804 13.979 16.412 13.587C16.02 13.195 15.5493 12.9993 15 13H10V17Z" fill="#9560DB"/>
</svg>
